<mxfile host="app.diagrams.net" agent="Mozilla/5.0 (Windows NT 10.0; Win64; x64) AppleWebKit/537.36 (KHTML, like Gecko) Chrome/131.0.0.0 Safari/537.36" version="24.9.1" pages="3">
  <diagram id="hJiNWwrClcbxFBkgTaPY" name="Architektur">
    <mxGraphModel dx="1434" dy="866" grid="1" gridSize="10" guides="1" tooltips="1" connect="1" arrows="1" fold="1" page="1" pageScale="1" pageWidth="827" pageHeight="1169" math="0" shadow="0">
      <root>
        <mxCell id="0" />
        <mxCell id="1" parent="0" />
        <mxCell id="x_8Z25N510f7iWhDpwh--23" style="edgeStyle=orthogonalEdgeStyle;rounded=0;orthogonalLoop=1;jettySize=auto;html=1;" parent="1" source="x_8Z25N510f7iWhDpwh--2" target="x_8Z25N510f7iWhDpwh--6" edge="1">
          <mxGeometry relative="1" as="geometry" />
        </mxCell>
        <mxCell id="x_8Z25N510f7iWhDpwh--2" value="OpenTelemetry Collector" style="rounded=1;whiteSpace=wrap;html=1;" parent="1" vertex="1">
          <mxGeometry x="400" y="370" width="120" height="60" as="geometry" />
        </mxCell>
        <mxCell id="x_8Z25N510f7iWhDpwh--13" style="rounded=0;orthogonalLoop=1;jettySize=auto;html=1;dashed=1;" parent="1" source="x_8Z25N510f7iWhDpwh--3" target="x_8Z25N510f7iWhDpwh--5" edge="1">
          <mxGeometry relative="1" as="geometry" />
        </mxCell>
        <mxCell id="x_8Z25N510f7iWhDpwh--25" value="operates" style="edgeLabel;html=1;align=center;verticalAlign=middle;resizable=0;points=[];" parent="x_8Z25N510f7iWhDpwh--13" vertex="1" connectable="0">
          <mxGeometry x="-0.1466" y="-1" relative="1" as="geometry">
            <mxPoint as="offset" />
          </mxGeometry>
        </mxCell>
        <mxCell id="x_8Z25N510f7iWhDpwh--17" style="rounded=0;orthogonalLoop=1;jettySize=auto;html=1;dashed=1;" parent="1" source="x_8Z25N510f7iWhDpwh--3" target="x_8Z25N510f7iWhDpwh--2" edge="1">
          <mxGeometry relative="1" as="geometry" />
        </mxCell>
        <mxCell id="x_8Z25N510f7iWhDpwh--26" value="operates" style="edgeLabel;html=1;align=center;verticalAlign=middle;resizable=0;points=[];" parent="x_8Z25N510f7iWhDpwh--17" vertex="1" connectable="0">
          <mxGeometry x="-0.053" y="-2" relative="1" as="geometry">
            <mxPoint as="offset" />
          </mxGeometry>
        </mxCell>
        <mxCell id="x_8Z25N510f7iWhDpwh--3" value="OpenTelemetry Operator" style="rounded=1;whiteSpace=wrap;html=1;" parent="1" vertex="1">
          <mxGeometry x="80" y="250" width="120" height="60" as="geometry" />
        </mxCell>
        <mxCell id="LoQ2UR36ufPyHZ7plVl1-1" style="edgeStyle=orthogonalEdgeStyle;rounded=0;orthogonalLoop=1;jettySize=auto;html=1;" parent="1" source="x_8Z25N510f7iWhDpwh--4" target="x_8Z25N510f7iWhDpwh--2" edge="1">
          <mxGeometry relative="1" as="geometry" />
        </mxCell>
        <mxCell id="x_8Z25N510f7iWhDpwh--4" value="Collector Proxy" style="rounded=1;whiteSpace=wrap;html=1;" parent="1" vertex="1">
          <mxGeometry x="570" y="370" width="120" height="60" as="geometry" />
        </mxCell>
        <mxCell id="x_8Z25N510f7iWhDpwh--24" style="edgeStyle=orthogonalEdgeStyle;rounded=0;orthogonalLoop=1;jettySize=auto;html=1;startArrow=classic;startFill=1;" parent="1" source="x_8Z25N510f7iWhDpwh--6" target="x_8Z25N510f7iWhDpwh--7" edge="1">
          <mxGeometry relative="1" as="geometry" />
        </mxCell>
        <mxCell id="x_8Z25N510f7iWhDpwh--6" value="Jaeger" style="rounded=1;whiteSpace=wrap;html=1;" parent="1" vertex="1">
          <mxGeometry x="400" y="500" width="120" height="60" as="geometry" />
        </mxCell>
        <mxCell id="x_8Z25N510f7iWhDpwh--7" value="ElasticSearch" style="rounded=1;whiteSpace=wrap;html=1;" parent="1" vertex="1">
          <mxGeometry x="570" y="500" width="120" height="60" as="geometry" />
        </mxCell>
        <mxCell id="x_8Z25N510f7iWhDpwh--8" value="" style="rounded=1;whiteSpace=wrap;html=1;" parent="1" vertex="1">
          <mxGeometry x="270" y="70" width="380" height="210" as="geometry" />
        </mxCell>
        <mxCell id="x_8Z25N510f7iWhDpwh--20" style="rounded=0;orthogonalLoop=1;jettySize=auto;html=1;" parent="1" source="x_8Z25N510f7iWhDpwh--11" target="x_8Z25N510f7iWhDpwh--2" edge="1">
          <mxGeometry relative="1" as="geometry" />
        </mxCell>
        <mxCell id="opeWMdb_MlhB8gXuTb6l-2" style="rounded=0;orthogonalLoop=1;jettySize=auto;html=1;dashed=1;" parent="1" source="x_8Z25N510f7iWhDpwh--11" target="axiSkf-lnLj4irAyco31-1" edge="1">
          <mxGeometry relative="1" as="geometry" />
        </mxCell>
        <mxCell id="axiSkf-lnLj4irAyco31-2" value="load payments" style="edgeLabel;html=1;align=center;verticalAlign=middle;resizable=0;points=[];" parent="opeWMdb_MlhB8gXuTb6l-2" vertex="1" connectable="0">
          <mxGeometry x="-0.2089" y="1" relative="1" as="geometry">
            <mxPoint x="4" y="1" as="offset" />
          </mxGeometry>
        </mxCell>
        <mxCell id="x_8Z25N510f7iWhDpwh--15" style="rounded=0;orthogonalLoop=1;jettySize=auto;html=1;dashed=1;" parent="1" source="x_8Z25N510f7iWhDpwh--5" target="x_8Z25N510f7iWhDpwh--10" edge="1">
          <mxGeometry relative="1" as="geometry" />
        </mxCell>
        <mxCell id="NfqUHQnahO4KU_GyHzHp-1" value="instruments" style="edgeLabel;html=1;align=center;verticalAlign=middle;resizable=0;points=[];" parent="x_8Z25N510f7iWhDpwh--15" vertex="1" connectable="0">
          <mxGeometry x="-0.2106" relative="1" as="geometry">
            <mxPoint x="3" y="4" as="offset" />
          </mxGeometry>
        </mxCell>
        <mxCell id="x_8Z25N510f7iWhDpwh--16" style="rounded=0;orthogonalLoop=1;jettySize=auto;html=1;dashed=1;entryX=-0.002;entryY=0.048;entryDx=0;entryDy=0;entryPerimeter=0;" parent="1" source="x_8Z25N510f7iWhDpwh--5" target="x_8Z25N510f7iWhDpwh--11" edge="1">
          <mxGeometry relative="1" as="geometry" />
        </mxCell>
        <mxCell id="x_8Z25N510f7iWhDpwh--30" value="instruments" style="edgeLabel;html=1;align=center;verticalAlign=middle;resizable=0;points=[];" parent="x_8Z25N510f7iWhDpwh--16" vertex="1" connectable="0">
          <mxGeometry x="-0.7555" relative="1" as="geometry">
            <mxPoint x="50" y="8" as="offset" />
          </mxGeometry>
        </mxCell>
        <mxCell id="kNIppeCJaW0pj7HFn36Y-3" style="rounded=0;orthogonalLoop=1;jettySize=auto;html=1;dashed=1;" parent="1" source="x_8Z25N510f7iWhDpwh--5" target="x_8Z25N510f7iWhDpwh--9" edge="1">
          <mxGeometry relative="1" as="geometry" />
        </mxCell>
        <mxCell id="kNIppeCJaW0pj7HFn36Y-4" value="instruments" style="edgeLabel;html=1;align=center;verticalAlign=middle;resizable=0;points=[];" parent="kNIppeCJaW0pj7HFn36Y-3" vertex="1" connectable="0">
          <mxGeometry x="-0.1426" y="-2" relative="1" as="geometry">
            <mxPoint y="-5" as="offset" />
          </mxGeometry>
        </mxCell>
        <mxCell id="x_8Z25N510f7iWhDpwh--5" value="OpenTelemetry Instrumentation" style="rounded=1;whiteSpace=wrap;html=1;" parent="1" vertex="1">
          <mxGeometry x="80" y="120" width="120" height="60" as="geometry" />
        </mxCell>
        <mxCell id="axiSkf-lnLj4irAyco31-3" style="rounded=0;orthogonalLoop=1;jettySize=auto;html=1;dashed=1;" parent="1" source="x_8Z25N510f7iWhDpwh--10" target="opeWMdb_MlhB8gXuTb6l-1" edge="1">
          <mxGeometry relative="1" as="geometry" />
        </mxCell>
        <mxCell id="axiSkf-lnLj4irAyco31-4" value="load companies" style="edgeLabel;html=1;align=center;verticalAlign=middle;resizable=0;points=[];" parent="axiSkf-lnLj4irAyco31-3" vertex="1" connectable="0">
          <mxGeometry x="0.4209" relative="1" as="geometry">
            <mxPoint x="11" y="5" as="offset" />
          </mxGeometry>
        </mxCell>
        <mxCell id="x_8Z25N510f7iWhDpwh--19" style="rounded=0;orthogonalLoop=1;jettySize=auto;html=1;entryX=0.308;entryY=0;entryDx=0;entryDy=0;entryPerimeter=0;" parent="1" source="x_8Z25N510f7iWhDpwh--10" target="x_8Z25N510f7iWhDpwh--2" edge="1">
          <mxGeometry relative="1" as="geometry" />
        </mxCell>
        <mxCell id="J736D27aE5jjK21-I3eB-2" style="rounded=0;orthogonalLoop=1;jettySize=auto;html=1;entryX=0.5;entryY=0;entryDx=0;entryDy=0;" parent="1" source="x_8Z25N510f7iWhDpwh--9" target="x_8Z25N510f7iWhDpwh--2" edge="1">
          <mxGeometry relative="1" as="geometry" />
        </mxCell>
        <mxCell id="x_8Z25N510f7iWhDpwh--9" value="sample-next" style="rounded=1;whiteSpace=wrap;html=1;" parent="1" vertex="1">
          <mxGeometry x="320" y="100" width="120" height="60" as="geometry" />
        </mxCell>
        <mxCell id="x_8Z25N510f7iWhDpwh--35" value="" style="endArrow=classic;html=1;rounded=0;" parent="1" edge="1">
          <mxGeometry width="50" height="50" relative="1" as="geometry">
            <mxPoint x="70" y="510.88" as="sourcePoint" />
            <mxPoint x="210" y="511.12" as="targetPoint" />
          </mxGeometry>
        </mxCell>
        <mxCell id="x_8Z25N510f7iWhDpwh--37" value="flow of OpenTelemetry data and traces" style="text;html=1;align=center;verticalAlign=middle;whiteSpace=wrap;rounded=0;" parent="1" vertex="1">
          <mxGeometry x="70" y="519.12" width="140" height="30" as="geometry" />
        </mxCell>
        <mxCell id="opeWMdb_MlhB8gXuTb6l-1" value="mssql-company" style="rounded=1;whiteSpace=wrap;html=1;" parent="1" vertex="1">
          <mxGeometry x="720" y="290" width="120" height="60" as="geometry" />
        </mxCell>
        <mxCell id="opeWMdb_MlhB8gXuTb6l-4" value="&amp;lt;&amp;lt; outside of cluster &amp;gt;&amp;gt;" style="text;html=1;align=center;verticalAlign=middle;whiteSpace=wrap;rounded=0;" parent="1" vertex="1">
          <mxGeometry x="710" y="160" width="140" height="30" as="geometry" />
        </mxCell>
        <mxCell id="axiSkf-lnLj4irAyco31-1" value="mssql-payment" style="rounded=1;whiteSpace=wrap;html=1;" parent="1" vertex="1">
          <mxGeometry x="720" y="200" width="120" height="60" as="geometry" />
        </mxCell>
        <mxCell id="kNIppeCJaW0pj7HFn36Y-2" style="rounded=0;orthogonalLoop=1;jettySize=auto;html=1;" parent="1" source="kNIppeCJaW0pj7HFn36Y-1" target="x_8Z25N510f7iWhDpwh--4" edge="1">
          <mxGeometry relative="1" as="geometry" />
        </mxCell>
        <mxCell id="kNIppeCJaW0pj7HFn36Y-1" value="sample-angular" style="rounded=1;whiteSpace=wrap;html=1;" parent="1" vertex="1">
          <mxGeometry x="480" y="100" width="120" height="60" as="geometry" />
        </mxCell>
        <mxCell id="x_8Z25N510f7iWhDpwh--11" value="sample-payment" style="rounded=1;whiteSpace=wrap;html=1;" parent="1" vertex="1">
          <mxGeometry x="480" y="190" width="120" height="60" as="geometry" />
        </mxCell>
        <mxCell id="x_8Z25N510f7iWhDpwh--10" value="sample-company" style="rounded=1;whiteSpace=wrap;html=1;" parent="1" vertex="1">
          <mxGeometry x="320" y="190" width="120" height="60" as="geometry" />
        </mxCell>
        <mxCell id="LoQ2UR36ufPyHZ7plVl1-2" value="ingress-nginx" style="rounded=1;whiteSpace=wrap;html=1;" parent="1" vertex="1">
          <mxGeometry x="80" y="380" width="120" height="60" as="geometry" />
        </mxCell>
      </root>
    </mxGraphModel>
  </diagram>
  <diagram name="OC Architektur" id="JeOyHfIZ-yCZ_yMNuA7l">
    <mxGraphModel dx="1434" dy="866" grid="1" gridSize="10" guides="1" tooltips="1" connect="1" arrows="1" fold="1" page="1" pageScale="1" pageWidth="827" pageHeight="1169" math="0" shadow="0">
      <root>
        <mxCell id="vXIvIgsWobaLl7A_TEgn-0" />
        <mxCell id="vXIvIgsWobaLl7A_TEgn-1" parent="vXIvIgsWobaLl7A_TEgn-0" />
        <mxCell id="CpXL9wZ16wtq2WdFRfLu-0" style="edgeStyle=orthogonalEdgeStyle;rounded=0;orthogonalLoop=1;jettySize=auto;html=1;" edge="1" parent="vXIvIgsWobaLl7A_TEgn-1" source="CpXL9wZ16wtq2WdFRfLu-1" target="CpXL9wZ16wtq2WdFRfLu-10">
          <mxGeometry relative="1" as="geometry" />
        </mxCell>
        <mxCell id="CpXL9wZ16wtq2WdFRfLu-1" value="OpenTelemetry Collector" style="rounded=1;whiteSpace=wrap;html=1;" vertex="1" parent="vXIvIgsWobaLl7A_TEgn-1">
          <mxGeometry x="400" y="370" width="120" height="60" as="geometry" />
        </mxCell>
        <mxCell id="CpXL9wZ16wtq2WdFRfLu-2" style="rounded=0;orthogonalLoop=1;jettySize=auto;html=1;dashed=1;" edge="1" parent="vXIvIgsWobaLl7A_TEgn-1" source="CpXL9wZ16wtq2WdFRfLu-6" target="CpXL9wZ16wtq2WdFRfLu-22">
          <mxGeometry relative="1" as="geometry" />
        </mxCell>
        <mxCell id="CpXL9wZ16wtq2WdFRfLu-3" value="operates" style="edgeLabel;html=1;align=center;verticalAlign=middle;resizable=0;points=[];" vertex="1" connectable="0" parent="CpXL9wZ16wtq2WdFRfLu-2">
          <mxGeometry x="-0.1466" y="-1" relative="1" as="geometry">
            <mxPoint as="offset" />
          </mxGeometry>
        </mxCell>
        <mxCell id="CpXL9wZ16wtq2WdFRfLu-4" style="rounded=0;orthogonalLoop=1;jettySize=auto;html=1;dashed=1;" edge="1" parent="vXIvIgsWobaLl7A_TEgn-1" source="CpXL9wZ16wtq2WdFRfLu-6" target="CpXL9wZ16wtq2WdFRfLu-1">
          <mxGeometry relative="1" as="geometry" />
        </mxCell>
        <mxCell id="CpXL9wZ16wtq2WdFRfLu-5" value="operates" style="edgeLabel;html=1;align=center;verticalAlign=middle;resizable=0;points=[];" vertex="1" connectable="0" parent="CpXL9wZ16wtq2WdFRfLu-4">
          <mxGeometry x="-0.053" y="-2" relative="1" as="geometry">
            <mxPoint as="offset" />
          </mxGeometry>
        </mxCell>
        <mxCell id="CpXL9wZ16wtq2WdFRfLu-6" value="OpenTelemetry Operator" style="rounded=1;whiteSpace=wrap;html=1;" vertex="1" parent="vXIvIgsWobaLl7A_TEgn-1">
          <mxGeometry x="80" y="250" width="120" height="60" as="geometry" />
        </mxCell>
        <mxCell id="CpXL9wZ16wtq2WdFRfLu-7" style="edgeStyle=orthogonalEdgeStyle;rounded=0;orthogonalLoop=1;jettySize=auto;html=1;" edge="1" parent="vXIvIgsWobaLl7A_TEgn-1" source="CpXL9wZ16wtq2WdFRfLu-8" target="CpXL9wZ16wtq2WdFRfLu-1">
          <mxGeometry relative="1" as="geometry" />
        </mxCell>
        <mxCell id="CpXL9wZ16wtq2WdFRfLu-8" value="Collector Proxy" style="rounded=1;whiteSpace=wrap;html=1;" vertex="1" parent="vXIvIgsWobaLl7A_TEgn-1">
          <mxGeometry x="570" y="370" width="120" height="60" as="geometry" />
        </mxCell>
        <mxCell id="CpXL9wZ16wtq2WdFRfLu-9" style="edgeStyle=orthogonalEdgeStyle;rounded=0;orthogonalLoop=1;jettySize=auto;html=1;startArrow=classic;startFill=1;" edge="1" parent="vXIvIgsWobaLl7A_TEgn-1" source="CpXL9wZ16wtq2WdFRfLu-10" target="CpXL9wZ16wtq2WdFRfLu-11">
          <mxGeometry relative="1" as="geometry" />
        </mxCell>
        <mxCell id="CpXL9wZ16wtq2WdFRfLu-10" value="Jaeger" style="rounded=1;whiteSpace=wrap;html=1;" vertex="1" parent="vXIvIgsWobaLl7A_TEgn-1">
          <mxGeometry x="400" y="500" width="120" height="60" as="geometry" />
        </mxCell>
        <mxCell id="CpXL9wZ16wtq2WdFRfLu-11" value="ElasticSearch" style="rounded=1;whiteSpace=wrap;html=1;" vertex="1" parent="vXIvIgsWobaLl7A_TEgn-1">
          <mxGeometry x="570" y="500" width="120" height="60" as="geometry" />
        </mxCell>
        <mxCell id="CpXL9wZ16wtq2WdFRfLu-12" value="" style="rounded=1;whiteSpace=wrap;html=1;" vertex="1" parent="vXIvIgsWobaLl7A_TEgn-1">
          <mxGeometry x="270" y="70" width="380" height="210" as="geometry" />
        </mxCell>
        <mxCell id="CpXL9wZ16wtq2WdFRfLu-13" style="rounded=0;orthogonalLoop=1;jettySize=auto;html=1;" edge="1" parent="vXIvIgsWobaLl7A_TEgn-1" source="CpXL9wZ16wtq2WdFRfLu-35" target="CpXL9wZ16wtq2WdFRfLu-1">
          <mxGeometry relative="1" as="geometry" />
        </mxCell>
        <mxCell id="CpXL9wZ16wtq2WdFRfLu-14" style="rounded=0;orthogonalLoop=1;jettySize=auto;html=1;dashed=1;" edge="1" parent="vXIvIgsWobaLl7A_TEgn-1" source="CpXL9wZ16wtq2WdFRfLu-35" target="CpXL9wZ16wtq2WdFRfLu-32">
          <mxGeometry relative="1" as="geometry" />
        </mxCell>
        <mxCell id="CpXL9wZ16wtq2WdFRfLu-15" value="load payments" style="edgeLabel;html=1;align=center;verticalAlign=middle;resizable=0;points=[];" vertex="1" connectable="0" parent="CpXL9wZ16wtq2WdFRfLu-14">
          <mxGeometry x="-0.2089" y="1" relative="1" as="geometry">
            <mxPoint x="4" y="1" as="offset" />
          </mxGeometry>
        </mxCell>
        <mxCell id="CpXL9wZ16wtq2WdFRfLu-16" style="rounded=0;orthogonalLoop=1;jettySize=auto;html=1;dashed=1;" edge="1" parent="vXIvIgsWobaLl7A_TEgn-1" source="CpXL9wZ16wtq2WdFRfLu-22" target="CpXL9wZ16wtq2WdFRfLu-36">
          <mxGeometry relative="1" as="geometry" />
        </mxCell>
        <mxCell id="CpXL9wZ16wtq2WdFRfLu-17" value="instruments" style="edgeLabel;html=1;align=center;verticalAlign=middle;resizable=0;points=[];" vertex="1" connectable="0" parent="CpXL9wZ16wtq2WdFRfLu-16">
          <mxGeometry x="-0.2106" relative="1" as="geometry">
            <mxPoint x="3" y="4" as="offset" />
          </mxGeometry>
        </mxCell>
        <mxCell id="CpXL9wZ16wtq2WdFRfLu-18" style="rounded=0;orthogonalLoop=1;jettySize=auto;html=1;dashed=1;entryX=-0.002;entryY=0.048;entryDx=0;entryDy=0;entryPerimeter=0;" edge="1" parent="vXIvIgsWobaLl7A_TEgn-1" source="CpXL9wZ16wtq2WdFRfLu-22" target="CpXL9wZ16wtq2WdFRfLu-35">
          <mxGeometry relative="1" as="geometry" />
        </mxCell>
        <mxCell id="CpXL9wZ16wtq2WdFRfLu-19" value="instruments" style="edgeLabel;html=1;align=center;verticalAlign=middle;resizable=0;points=[];" vertex="1" connectable="0" parent="CpXL9wZ16wtq2WdFRfLu-18">
          <mxGeometry x="-0.7555" relative="1" as="geometry">
            <mxPoint x="50" y="8" as="offset" />
          </mxGeometry>
        </mxCell>
        <mxCell id="CpXL9wZ16wtq2WdFRfLu-20" style="rounded=0;orthogonalLoop=1;jettySize=auto;html=1;dashed=1;" edge="1" parent="vXIvIgsWobaLl7A_TEgn-1" source="CpXL9wZ16wtq2WdFRfLu-22" target="CpXL9wZ16wtq2WdFRfLu-27">
          <mxGeometry relative="1" as="geometry" />
        </mxCell>
        <mxCell id="CpXL9wZ16wtq2WdFRfLu-21" value="instruments" style="edgeLabel;html=1;align=center;verticalAlign=middle;resizable=0;points=[];" vertex="1" connectable="0" parent="CpXL9wZ16wtq2WdFRfLu-20">
          <mxGeometry x="-0.1426" y="-2" relative="1" as="geometry">
            <mxPoint y="-5" as="offset" />
          </mxGeometry>
        </mxCell>
        <mxCell id="CpXL9wZ16wtq2WdFRfLu-22" value="OpenTelemetry Instrumentation" style="rounded=1;whiteSpace=wrap;html=1;" vertex="1" parent="vXIvIgsWobaLl7A_TEgn-1">
          <mxGeometry x="80" y="120" width="120" height="60" as="geometry" />
        </mxCell>
        <mxCell id="CpXL9wZ16wtq2WdFRfLu-23" style="rounded=0;orthogonalLoop=1;jettySize=auto;html=1;dashed=1;" edge="1" parent="vXIvIgsWobaLl7A_TEgn-1" source="CpXL9wZ16wtq2WdFRfLu-36" target="CpXL9wZ16wtq2WdFRfLu-30">
          <mxGeometry relative="1" as="geometry" />
        </mxCell>
        <mxCell id="CpXL9wZ16wtq2WdFRfLu-24" value="load companies" style="edgeLabel;html=1;align=center;verticalAlign=middle;resizable=0;points=[];" vertex="1" connectable="0" parent="CpXL9wZ16wtq2WdFRfLu-23">
          <mxGeometry x="0.4209" relative="1" as="geometry">
            <mxPoint x="11" y="5" as="offset" />
          </mxGeometry>
        </mxCell>
        <mxCell id="CpXL9wZ16wtq2WdFRfLu-25" style="rounded=0;orthogonalLoop=1;jettySize=auto;html=1;entryX=0.308;entryY=0;entryDx=0;entryDy=0;entryPerimeter=0;" edge="1" parent="vXIvIgsWobaLl7A_TEgn-1" source="CpXL9wZ16wtq2WdFRfLu-36" target="CpXL9wZ16wtq2WdFRfLu-1">
          <mxGeometry relative="1" as="geometry" />
        </mxCell>
        <mxCell id="CpXL9wZ16wtq2WdFRfLu-26" style="rounded=0;orthogonalLoop=1;jettySize=auto;html=1;entryX=0.5;entryY=0;entryDx=0;entryDy=0;" edge="1" parent="vXIvIgsWobaLl7A_TEgn-1" source="CpXL9wZ16wtq2WdFRfLu-27" target="CpXL9wZ16wtq2WdFRfLu-1">
          <mxGeometry relative="1" as="geometry" />
        </mxCell>
        <mxCell id="CpXL9wZ16wtq2WdFRfLu-27" value="sample-next" style="rounded=1;whiteSpace=wrap;html=1;" vertex="1" parent="vXIvIgsWobaLl7A_TEgn-1">
          <mxGeometry x="320" y="100" width="120" height="60" as="geometry" />
        </mxCell>
        <mxCell id="CpXL9wZ16wtq2WdFRfLu-28" value="" style="endArrow=classic;html=1;rounded=0;" edge="1" parent="vXIvIgsWobaLl7A_TEgn-1">
          <mxGeometry width="50" height="50" relative="1" as="geometry">
            <mxPoint x="70" y="510.88" as="sourcePoint" />
            <mxPoint x="210" y="511.12" as="targetPoint" />
          </mxGeometry>
        </mxCell>
        <mxCell id="CpXL9wZ16wtq2WdFRfLu-29" value="flow of OpenTelemetry data and traces" style="text;html=1;align=center;verticalAlign=middle;whiteSpace=wrap;rounded=0;" vertex="1" parent="vXIvIgsWobaLl7A_TEgn-1">
          <mxGeometry x="70" y="519.12" width="140" height="30" as="geometry" />
        </mxCell>
        <mxCell id="CpXL9wZ16wtq2WdFRfLu-30" value="mssql-company/&lt;div&gt;h2-company&lt;/div&gt;" style="rounded=1;whiteSpace=wrap;html=1;" vertex="1" parent="vXIvIgsWobaLl7A_TEgn-1">
          <mxGeometry x="720" y="290" width="120" height="60" as="geometry" />
        </mxCell>
        <mxCell id="CpXL9wZ16wtq2WdFRfLu-31" value="(&amp;lt;&amp;lt; outside of cluster &amp;gt;&amp;gt;)" style="text;html=1;align=center;verticalAlign=middle;whiteSpace=wrap;rounded=0;" vertex="1" parent="vXIvIgsWobaLl7A_TEgn-1">
          <mxGeometry x="710" y="160" width="140" height="30" as="geometry" />
        </mxCell>
        <mxCell id="CpXL9wZ16wtq2WdFRfLu-32" value="mssql-payment/&lt;div&gt;h2-payment&lt;/div&gt;" style="rounded=1;whiteSpace=wrap;html=1;" vertex="1" parent="vXIvIgsWobaLl7A_TEgn-1">
          <mxGeometry x="720" y="200" width="120" height="60" as="geometry" />
        </mxCell>
        <mxCell id="CpXL9wZ16wtq2WdFRfLu-33" style="rounded=0;orthogonalLoop=1;jettySize=auto;html=1;" edge="1" parent="vXIvIgsWobaLl7A_TEgn-1" source="CpXL9wZ16wtq2WdFRfLu-34" target="CpXL9wZ16wtq2WdFRfLu-8">
          <mxGeometry relative="1" as="geometry" />
        </mxCell>
        <mxCell id="CpXL9wZ16wtq2WdFRfLu-34" value="sample-angular" style="rounded=1;whiteSpace=wrap;html=1;" vertex="1" parent="vXIvIgsWobaLl7A_TEgn-1">
          <mxGeometry x="480" y="100" width="120" height="60" as="geometry" />
        </mxCell>
        <mxCell id="CpXL9wZ16wtq2WdFRfLu-35" value="sample-payment" style="rounded=1;whiteSpace=wrap;html=1;" vertex="1" parent="vXIvIgsWobaLl7A_TEgn-1">
          <mxGeometry x="480" y="190" width="120" height="60" as="geometry" />
        </mxCell>
        <mxCell id="CpXL9wZ16wtq2WdFRfLu-36" value="sample-company" style="rounded=1;whiteSpace=wrap;html=1;" vertex="1" parent="vXIvIgsWobaLl7A_TEgn-1">
          <mxGeometry x="320" y="190" width="120" height="60" as="geometry" />
        </mxCell>
        <mxCell id="CpXL9wZ16wtq2WdFRfLu-38" value="already deployed,&lt;div&gt;not managed&lt;/div&gt;" style="rounded=0;whiteSpace=wrap;html=1;strokeColor=none;" vertex="1" parent="vXIvIgsWobaLl7A_TEgn-1">
          <mxGeometry x="60" y="300" width="110" height="30" as="geometry" />
        </mxCell>
      </root>
    </mxGraphModel>
  </diagram>
  <diagram id="AK5GHB_hVhFX9BBqRdtQ" name="Sample-App">
    <mxGraphModel dx="1434" dy="866" grid="1" gridSize="10" guides="1" tooltips="1" connect="1" arrows="1" fold="1" page="1" pageScale="1" pageWidth="827" pageHeight="1169" math="0" shadow="0">
      <root>
        <mxCell id="0" />
        <mxCell id="1" parent="0" />
        <mxCell id="9g-VFBMJsvnQR1qyFegx-5" style="edgeStyle=orthogonalEdgeStyle;rounded=0;orthogonalLoop=1;jettySize=auto;html=1;" parent="1" source="9g-VFBMJsvnQR1qyFegx-1" target="9g-VFBMJsvnQR1qyFegx-2" edge="1">
          <mxGeometry relative="1" as="geometry" />
        </mxCell>
        <mxCell id="9g-VFBMJsvnQR1qyFegx-7" value="load company" style="edgeLabel;html=1;align=center;verticalAlign=middle;resizable=0;points=[];" parent="9g-VFBMJsvnQR1qyFegx-5" vertex="1" connectable="0">
          <mxGeometry x="-0.0985" relative="1" as="geometry">
            <mxPoint as="offset" />
          </mxGeometry>
        </mxCell>
        <mxCell id="Hqc7jJcR4RjTwPB-H7hs-1" style="edgeStyle=orthogonalEdgeStyle;rounded=0;orthogonalLoop=1;jettySize=auto;html=1;" parent="1" source="9g-VFBMJsvnQR1qyFegx-1" target="9g-VFBMJsvnQR1qyFegx-3" edge="1">
          <mxGeometry relative="1" as="geometry">
            <Array as="points">
              <mxPoint x="170" y="390" />
              <mxPoint x="660" y="390" />
            </Array>
          </mxGeometry>
        </mxCell>
        <mxCell id="Hqc7jJcR4RjTwPB-H7hs-2" value="save payment" style="edgeLabel;html=1;align=center;verticalAlign=middle;resizable=0;points=[];" parent="Hqc7jJcR4RjTwPB-H7hs-1" vertex="1" connectable="0">
          <mxGeometry x="-0.0026" relative="1" as="geometry">
            <mxPoint as="offset" />
          </mxGeometry>
        </mxCell>
        <mxCell id="9g-VFBMJsvnQR1qyFegx-1" value="sample-next/&lt;div&gt;sample-angular&lt;/div&gt;" style="rounded=1;whiteSpace=wrap;html=1;" parent="1" vertex="1">
          <mxGeometry x="110" y="420" width="120" height="60" as="geometry" />
        </mxCell>
        <mxCell id="9g-VFBMJsvnQR1qyFegx-6" style="edgeStyle=orthogonalEdgeStyle;rounded=0;orthogonalLoop=1;jettySize=auto;html=1;" parent="1" source="9g-VFBMJsvnQR1qyFegx-2" target="9g-VFBMJsvnQR1qyFegx-3" edge="1">
          <mxGeometry relative="1" as="geometry" />
        </mxCell>
        <mxCell id="9g-VFBMJsvnQR1qyFegx-8" value="(load payments)" style="edgeLabel;html=1;align=center;verticalAlign=middle;resizable=0;points=[];" parent="9g-VFBMJsvnQR1qyFegx-6" vertex="1" connectable="0">
          <mxGeometry x="-0.0392" y="2" relative="1" as="geometry">
            <mxPoint y="2" as="offset" />
          </mxGeometry>
        </mxCell>
        <mxCell id="963EfTdTpKETmrmNhBYM-2" style="edgeStyle=orthogonalEdgeStyle;rounded=0;orthogonalLoop=1;jettySize=auto;html=1;" parent="1" source="9g-VFBMJsvnQR1qyFegx-2" target="963EfTdTpKETmrmNhBYM-1" edge="1">
          <mxGeometry relative="1" as="geometry" />
        </mxCell>
        <mxCell id="963EfTdTpKETmrmNhBYM-3" value="load data" style="edgeLabel;html=1;align=center;verticalAlign=middle;resizable=0;points=[];" parent="963EfTdTpKETmrmNhBYM-2" vertex="1" connectable="0">
          <mxGeometry x="-0.1595" relative="1" as="geometry">
            <mxPoint as="offset" />
          </mxGeometry>
        </mxCell>
        <mxCell id="9g-VFBMJsvnQR1qyFegx-2" value="sample-company" style="rounded=1;whiteSpace=wrap;html=1;" parent="1" vertex="1">
          <mxGeometry x="353.5" y="420" width="120" height="60" as="geometry" />
        </mxCell>
        <mxCell id="sdY4pTrQqSob_MEYZJeR-2" style="edgeStyle=orthogonalEdgeStyle;rounded=0;orthogonalLoop=1;jettySize=auto;html=1;" parent="1" source="9g-VFBMJsvnQR1qyFegx-3" target="sdY4pTrQqSob_MEYZJeR-1" edge="1">
          <mxGeometry relative="1" as="geometry" />
        </mxCell>
        <mxCell id="sdY4pTrQqSob_MEYZJeR-3" value="load data" style="edgeLabel;html=1;align=center;verticalAlign=middle;resizable=0;points=[];" parent="sdY4pTrQqSob_MEYZJeR-2" vertex="1" connectable="0">
          <mxGeometry x="-0.0425" y="1" relative="1" as="geometry">
            <mxPoint x="-1" y="-4" as="offset" />
          </mxGeometry>
        </mxCell>
        <mxCell id="9g-VFBMJsvnQR1qyFegx-3" value="sample-payment" style="rounded=1;whiteSpace=wrap;html=1;" parent="1" vertex="1">
          <mxGeometry x="600" y="420" width="120" height="60" as="geometry" />
        </mxCell>
        <mxCell id="sdY4pTrQqSob_MEYZJeR-1" value="mssql-payment/&lt;div&gt;h2-payment&lt;/div&gt;" style="rounded=1;whiteSpace=wrap;html=1;" parent="1" vertex="1">
          <mxGeometry x="600" y="530" width="120" height="60" as="geometry" />
        </mxCell>
        <mxCell id="963EfTdTpKETmrmNhBYM-1" value="mssql-cpmpany/&lt;div&gt;h2-company&lt;/div&gt;" style="rounded=1;whiteSpace=wrap;html=1;" parent="1" vertex="1">
          <mxGeometry x="354" y="530" width="120" height="60" as="geometry" />
        </mxCell>
      </root>
    </mxGraphModel>
  </diagram>
</mxfile>
